<svg id="Ebene_1" data-name="Ebene 1" xmlns="http://www.w3.org/2000/svg" viewBox="0 0 2105.12 565.58"><defs><style>.cls-1{fill:#1961ac;}.cls-2{fill:#cd2038;}</style></defs><title>Logo_it4kids_ueberarbeitet_4-transparent</title><path class="cls-1" d="M25.12,584.77c27.09,0,27.07-13.87,27.07-29.76s-21.95-28.77-49-28.77-47.49-14.48-47.49,1.41c0,56.13,42.37,57.12,69.45,57.12Z" transform="translate(506 -119.89)"/><path class="cls-1" d="M570.8,584.77c-27.09,0-22.11-16-22.11-31.89s21.95-28.77,49-28.77,47.48-19.43,47.48-3.54c0,56.12-47.33,64.2-74.41,64.2Z" transform="translate(506 -119.89)"/><path class="cls-1" d="M585.68,119.89c-27.08,0-37,15.29-37,31.18s.83,5.1,27.92,5.1,69.52,27.64,69.52,25.8c0-44.51-37.49-62.08-60.45-62.08Z" transform="translate(506 -119.89)"/><path class="cls-1" d="M15.88,119.89c27,0,36.88,15.29,36.88,31.18s-.83,5.1-27.84,5.1S-44.4,183.81-44.4,182c0-44.51,37.38-62.08,60.28-62.08Z" transform="translate(506 -119.89)"/><path class="cls-1" d="M-79.62,678.6c0-.84-1.15,1.11-2.83-.57l-3.07-1.7-1.47-1.7-1.41-1.7-3.12-3.12-2-2.83-4.2.9v-2.63l-3.89-3.61c-2.14-2,2.09-4.87,1.29-4.87l-2.27-4.53-5.8-16.32V613.81l155.11.39,155.12.39.5,3.51.5,3.52,5.6,5.21,5.6,5.21,84.1,0,84.1,0,6.23-6,6.22-6v-6.35l155.12.39,155.83.39.08,20.64-5.67,19.14-.08,3.38-5,.48,0,5.62-1.89,5-3,3-4,2.83-1.51,1.7-10-7.09-5.11,6.81-20.4,9.42H-51.55l-24.66-6-3.41-.85ZM645.21,519.89l-7.29,1.31-2.34,1.31v11.72l-2.29.87L631,536v7l-4.56,3-4.57,3,0,3,0,3-3.61,3.43L614.57,562h-5.18l-4.63,4.2c-2.54,2.3-5.72,5.39-7.06,6.86l-2.44,2.66h-6.62l-.87,2.29-.88,2.29H573.4l-.88,2.28-.88,2.29H24.58l-.88-.16-1.27-.5-2.83.29-6.52-2.27-7.09-2-1.42-.85-3.12-1.14-2-1.42-2-.56-1.7-1.7-1.71-1.42h-1.7l-6.52-.85-2.26-3.69c-1.3-1.46-9.92-2.66-14.46-6.8l-3.4-3.4-3.69-3.69-2.14-1.89,1.58-3.77-2.27-4.26.28-3.4-.57-2.27-.28-2.83-.57-1.7.57-1.7-2-2.53-.86-2.84-.17-2.12V180.77l2.29-.87,2.29-.88V172.4l3-2.58,3-2.59-.7-4.23-.7-4.24,7.48-6.09,7.48-6.1.11-3.43.11-3.43,3.43,0,3.43,0,4.44-4.53,4.45-4.53,2.41-.05,2.42,0,4.19-3.69c2.31-2,4.19-4.4,4.19-5.28l2.84-1.6H590.62l4.45,5.34,4.45,5.33,3.16,0,3.17.05,12.58,11.77L631,154.19l0,5.34,0,5.33,5.23,3.81,5.24,3.82-.79,2.6-.78,2.6,3.13,2,3.13,1.95M-488.95,509.51l-6.3-2-5.38-4.1-5.37-4.1.07-7.17.07-7.16,2.08-4.12c1.14-2.26,3.12-4.7,4.39-5.41l2.31-1.3,2.23-28.89c4.64-60.27,9.84-176.79,9.9-222.12v-7.24h-9.14v-4.37l2.86-.91c2.6-.82,16.08-2,55.85-4.82l13.74-1,9.89,4.16a136.88,136.88,0,0,0,13.11,4.91l3.21.76.83-3.17.83-3.17,4.84.56,4.84.56,1.53,1.53,1.52,1.53-.64,53.16c-.82,68.27-5.2,178.61-8.17,206l-.87,8,2.43.94,2.44.93v2.76a17.21,17.21,0,0,1-.93,5.17l-.92,2.42h-6.05l-2.66,3.29-2.67,3.29-1.63-1-1.63-1,.8-3.05c1-3.81,1.36-3.84-11.19.93l-10.47,4-10.67,2-10.68,2L-457.49,507l-13,4.65-6.1-.08-6.1-.08-6.3-2Zm25.36-6.91,8.38-2.8-20.45-.16-20.45-.15.9.9c.49.5,3.52,1.84,6.73,3l5.83,2.08,5.34,0,5.33,0,8.39-2.8Zm33.53-12.45c8-2.62,15.14-5.36,15.94-6.1l1.45-1.33h-5c-2.74,0-14.71,1.68-26.6,3.73s-25.05,4.29-29.24,5l-7.62,1.22,17.53.84c9.64.46,17.87,1,18.29,1.14s7.28-1.84,15.24-4.46Zm-67.83-5.91.94-1.52h-3.23v1.52c0,.84.3,1.53.67,1.53s1.1-.69,1.62-1.53Zm47.54-2.52c12.42-2.22,26.36-4.22,31-4.43l8.38-.38,2.62-4.29,2.62-4.28,3.26-13.77,3.25-13.77,1.28-38.88c.71-21.38,1.26-55,1.23-74.7s.46-48.2,1.08-63.33l1.13-27.51-1-5.54-1-5.53-6.43-3.07-6.43-3.07-9.15-1.55a184.35,184.35,0,0,0-22.1-1.78l-13-.23-11.91,2.29c-6.56,1.26-12.2,2.58-12.55,2.93-.84.83-7,134.14-6.23,134.91,1.74,1.73,5.69-52.23,6.84-93.31l1-35.06H-472l.5,21.34.49,21.34-1.68,51.07c-2.57,77.55-5.95,135.13-9,153.09l-1,6-2.12.71-2.11.7,1-9.73c1-9.89,4.79-61.05,6.4-85.91,1.49-23.08-.43-13.81-3.79,18.27-1.75,16.76-4.56,41.3-6.24,54.55l-3.06,24.08.9,1.45.9,1.46h17.92l22.58-4Zm49.5-4.49-1.34-5.94-1.17,2.76-1.18,2.77,1.78,3.91c2.49,5.46,3.5,3.6,1.91-3.5Zm-82.56-118.76a.76.76,0,0,0-.76-.76.76.76,0,0,0-.76.76.77.77,0,0,0,.76.77.77.77,0,0,0,.76-.77ZM-177,508.61l-23.63-2.67-6.27-2.39-6.28-2.38-15.61-1.6C-237.36,498.69-246,498-248,498h-3.62l-3.11,6.1-3.11,6.1h-7.56l.05-1.91a11.45,11.45,0,0,1,2.29-4.86c1.23-1.63,2.24-3.43,2.24-4v-1l-6.16-1-6.15-1-.82-2.12-.81-2.12,2.43-4.71,2.44-4.71h12.27l2.31-5.53,2.31-5.52,2.12-16.2,2.13-16.2,1.53-35.06c.84-19.29,1.67-46.73,1.84-61l.32-25.92-1.4-.36a10.14,10.14,0,0,0-4.22.53l-2.83.9-1.39-1.4-1.4-1.4-20.17,2.86-20.18,2.85-16.24.3-16.24.29-3.11-4.57A46.67,46.67,0,0,1-336.4,310l-1-2.75-4.38,1-4.39,1-.93-2.43-.93-2.43,1.88-2.26,1.87-2.26.2-27.83c.21-29.38-1.19-59.44-2.89-62.2l-1-1.65,1-1,1-1,16.26,3.33,16.25,3.32,2.33-2,2.34-2,8.38,1.28c4.61.71,25.19,2,45.74,2.83s44.89,2.32,54.11,3.27l16.75,1.72,9.92,2.75c5.46,1.51,21.17,6.3,34.91,10.64l25,7.89,1.11-1.79,1.1-1.79,3.64.52,3.64.51.48,4.2.48,4.19h4.24l.92,4.95.93,5-2.38,19.27-2.38,19.27,1,16.4,1,16.4-4.06-1-7.86-1.92-3.81-.92v2.14a6.69,6.69,0,0,0,1.82,4l1.83,1.83-1.84,1.84L-116,334l-4.78-2.82-4.78-2.83-9.42.26-9.43.26-9.5-2.21-9.51-2.22-.78,2a17.71,17.71,0,0,0-.29,6.37l.49,4.32,3.43.49,3.43.48v9.69c0,21.68,5.65,80.81,10.91,114.35l3.12,19.82,1.56,1.9,1.56,1.91h8.77v6.1h-11.1l-2,2.66-2,2.67,0,7.24-.05,7.24-3.43-.19c-1.89-.11-14.06-1.4-27.06-2.88Zm-6.6-10.14-1-1-1,1-1,1h4.06l-1-1Zm19.82-1.52-1-1V500l1-1,1-1-1-1Zm-28.72-8.28,4.07-.16-3.81-1.22a42.67,42.67,0,0,0-10.67-1.13l-6.86.1,5,.62,5,.62,1,2.49,1,3.05.53-2.39.61-1.83,4.06-.15ZM-158,478.53c-.4-2.31-2.43-14.51-4.51-27.11s-4.84-26.33-6.14-30.49l-2.36-7.58-3.73-42.68c-2.05-23.48-3.74-46.55-3.76-51.28l0-8.58,3.36-.88,3.37-.88-1.19-1.21c-.65-.66-3.37-1.95-6-2.86l-4.85-1.66-.45-2.33-.45-2.33,8.84.18,8.83.18,3.77,2.67,3.77,2.66,6.9,0c3.8,0,13,.71,20.46,1.56s13.84,1.26,14.2.91,1.7-13.42,3-29l2.34-28.39-.83-2.17-.84-2.17-10.93-3.26c-24.35-7.25-39.87-9.34-118.81-16-41-3.46-73.64-7-86.55-9.31l-5-.91,1.34,3.61,1.34,3.6,1.07,36.56c.59,20.11,1.2,36.67,1.36,36.81A78.67,78.67,0,0,0-321,294.9l9.15-1.51,23.11,1,23.12,1,15,2.25c8.24,1.24,16.19,2.63,17.66,3.09l2.67.85v5.89h-7.81l1.24,1.91,1.23,1.9,1.61,24.4,1.62,24.39-2,29c-1.08,15.93-2.73,35.49-3.66,43.45l-1.69,14.48-2.75,6.1-2.75,6.1-1.41,11.05-1.4,11.05h2.39c1.31,0,7.88-.72,14.58-1.61l12.2-1.6,22.87,2.17c12.58,1.19,26.45,2.26,30.83,2.36l8,.2-.74-4.19Zm-3.92-83.85-.15-10.29-1.31,5.34-1.31,5.33.87,5c1.37,7.79,2.07,5.84,1.9-5.34Zm53.52-83.47a.77.77,0,0,0-.77-.76.76.76,0,0,0-.76.76.77.77,0,0,0,.76.77.78.78,0,0,0,.77-.77ZM860.5,505c-3.69-3.7-11.69-13.47-17.77-21.73-9-12.27-35.22-44-49.08-59.55l-3-3.39,2-2.36,2-2.37-.85-.85-.85-.85L790,415.38a20.28,20.28,0,0,0-5.09,4.31l-2.28,2.81.77,32.12.77,32.12-1.88,3.7-1.88,3.71,0,7.24,0,7.25h-5.74l-.84-3.24-.85-3.24-13.43,1.11c-7.39.61-19.12,1.93-26.06,2.94l-12.62,1.84-11.77-1.17c-6.47-.65-14.69-1.53-18.25-2l-6.48-.79v6h-7.73l1-13.34c1.66-22.27,1.49-78.09-.47-155.12l-1.87-73.17L673,243.4l-2.26-25.12-2.36-1.72-2.35-1.73v-4.67l2.67-1.15,2.66-1.15,23.63.33,23.63.33,10.6,1.46,10.59,1.45,2.48,2.25,2.49,2.25h18.49l.9-2.35.9-2.35,3.41,1.82,3.41,1.83,4.78-.18,4.79-.18,2.66,1.94,2.66,1.95-2.27,6.76-2.26,6.77-1.11,41.16-1.11,41.16,3.45-3.05c1.9-1.67,7.46-8.07,12.37-14.21l8.93-11.17,6-12.46a170.49,170.49,0,0,0,7.85-18.94l1.88-6.48h6.65l4.81-14.1c2.65-7.76,5.36-16.85,6-20.2l1.21-6.1,7.07-1.38,7.06-1.38,24.13,3.3,24.13,3.29h19.33l2.86,3.43c1.58,1.88,2.89,3.94,2.92,4.57l0,1.15H922l1.1,1.76,1.09,1.77-.33,9.1-.33,9.1-3.79,10.09c-5.47,14.54-24.8,51.16-45.41,86l-17.84,30.21.93,2.95.94,3h5.34l18,29.35c9.92,16.14,19.54,31.06,21.4,33.15a135.42,135.42,0,0,1,8.25,11.07l4.88,7.25-.94,1.51-.93,1.52h6.28v28.59l2.29,1.9,2.28,1.89v4.2L922.15,498l-3.09,3.08-2.63-1.4-2.63-1.39-20.2,4-20.2,4v3.6l-2.41.93c-3.49,1.34-3.18,1.51-10.49-5.79ZM751.94,497.8,773,496l1.54-4,1.53-4-.87-31.25c-.47-17.19-1.26-34-1.74-37.35l-.88-6.1,8.48-6.47,8.48-6.48h6l7,8.76c3.85,4.82,13.1,18,20.55,29.35s16,23.67,19,27.44a118.49,118.49,0,0,1,10.46,16.81l5,9.94,4.25,4.25,4.25,4.26,20.55-3.52c11.29-1.93,21.27-4,22.17-4.52l1.62-1-5.94-11.93-6-11.93-6.17-4.12-6.17-4.12-19.12-24.88c-19.85-25.83-29.93-40.3-32.91-47.21l-1.74-4,.91-.91a6,6,0,0,1,3.52-.92h2.61l1.9,2.29c1,1.26,2.47,2.29,3.17,2.29h1.26l-3.72-8-3.73-8V367.6l0-3.08,6-10.34c3.33-5.68,13.16-20.77,21.85-33.51L882,297.49l7.77-17c4.27-9.33,10.05-23.22,12.83-30.84l5.07-13.87,2.66,0,2.67,0v-6.39l3.1-4.35,3.1-4.35-5-.77c-7.31-1.12-53.22-4.29-53.67-3.7-.21.28-4.57,8.56-9.7,18.4-9.53,18.3-21.89,38.54-44.12,72.28l-12.55,19-1.51,5.62a34.58,34.58,0,0,1-3.81,8.86l-2.28,3.25-6.9,1-6.9,1v9h-6.1v-6.38l-3-.8-3-.8v-1.39c0-.77,1-1.78,2.21-2.24l2.22-.85,1.51-4.82A87,87,0,0,0,769,325.7l.93-6.86-2.33-18.66c-1.29-10.26-2.72-27.07-3.2-37.35s-1.23-23.57-1.68-29.53l-.81-10.83-24.67-1c-13.56-.56-32-1.44-41.05-2l-16.39-.95v6.69c0,3.69,1.68,23.85,3.73,44.81l3.72,38.11L689,381.34l1.76,73.18-2.5,17.53c-1.37,9.64-2.86,19.39-3.31,21.66l-.81,4.14,11.16,0,11.16,0,5.34,1.48,5.33,1.48,6.86-.61,28-2.43Zm160.58-19.15-1-1v4.06l1-1,1-1-1-1Zm-18.29-30.49-1-1v4.06l1-1,1-1-1-1Zm1.52-10.67-1-1v4.06l1-1,1-1-1-1ZM886.61,436l-1-1V439l1-1,1-1-1-1Zm-22.52-18a69.5,69.5,0,0,0-8.07-9.52l-3.15-2.68,1.6,2.29c3.57,5.07,13.24,16.77,13.87,16.77.37,0-1.54-3.09-4.25-6.86ZM881,415.17a10.84,10.84,0,0,0-2.24-4.95l-2.24-3,0,4.95,0,5H881v-2Zm-6.1-13.06c0-.74-1-2.19-2.29-3.24l-2.28-1.9v6.48h4.57v-1.34Zm-22.87-19.25a.76.76,0,1,0-.76.77.77.77,0,0,0,.76-.77Zm4.65-32,6.21-12.2-2.48,3.05c-4.85,6-16,24.69-16,26.81l0,2.16,3-3.81c1.65-2.1,5.79-9.3,9.21-16Zm42.61-74.7a.76.76,0,1,0-.76.76.76.76,0,0,0,.76-.76ZM910,252.75c2.6-6.16,4.49-11.45,4.19-11.75-.5-.5-13.51,28-14.6,32s6.07-10,10.41-20.24Zm-137.25,6.63a.77.77,0,1,0-.76.76.77.77,0,0,0,.76-.76Zm-2-11-.7-2.67v10.67l.7-2.67a12.6,12.6,0,0,0,0-5.33Zm145.3-11.82a.76.76,0,1,0-1.52,0,.76.76,0,1,0,1.52,0Zm62.49,273.75c-6.12-1.86-12.73-5.64-15.8-9l-2.84-3.14.94-3.75.94-3.75-1.68-.56-1.68-.56,2.5-6,2.51-6.05,2.83-2.28,2.83-2.29,2.43-35.06c4-58.18,5.42-83.39,7-127.3.84-23.06,2-53.76,2.54-68.22l1-26.3h-9.62v-4.37l2.78-.88c2.64-.84,23.5-2.67,55.18-4.84l14.51-1,11.37,4.78c6.26,2.63,12.25,4.78,13.31,4.78h1.94v-6.17l5.44.6,5.44.6L1084,211l1.56,1.56-.7,48.57c-.38,26.71-1.47,65.37-2.41,85.91s-2.49,54.84-3.45,76.22-2,43.17-2.44,48.41l-.71,9.52h4.85v2.39a13.92,13.92,0,0,1-1.58,5.34l-1.58,2.95h-5.88l-1.64,3-1.63,3H1064v-3.81c0-2.09-.23-3.81-.5-3.81s-4.7,1.71-9.84,3.8l-9.34,3.79-11.89,2.25-11.88,2.26-13,4.59-13,4.59-6.1-.1a44.75,44.75,0,0,1-9.92-1.26Zm26.25-8.33,5-2.19-19.69-.13-19.7-.12,1.13,1.14a25.56,25.56,0,0,0,6,3l4.85,1.88,8.7-.71,8.7-.71,5-2.19ZM1035,490.15c8-2.62,15.14-5.36,15.93-6.1l1.45-1.33H1048c-2.4,0-14,1.66-25.84,3.7s-24.9,4.26-29.09,4.95l-7.63,1.25,16.77.85c9.23.46,17.11,1,17.53,1.14s7.28-1.84,15.25-4.46Zm-67.56-7.72-.8-2-.12,2.92-.12,2.93.92-.92.92-.93-.8-2Zm47.78-.71,22.07-4.05,9.14-.37,9.15-.37,3.62-8.92,3.62-8.91,2.23-12.2,2.23-12.2.58-23.63c.59-23.72,2.71-157.8,2.75-174.12l0-8.71-2.64-2.92-2.64-2.91-8.33-2.62-8.33-2.62L1031.61,216l-17.09-1.13-8.44,2c-4.64,1.08-10.87,2.34-13.84,2.81l-5.39.84L984,287.64l-2.81,67.13,1,1,1,1v-4c0-2.23,1.05-18,2.33-34.94s2.83-44.22,3.43-60.5l1.1-29.61,1.85-.61,1.85-.61,1.08,4.3,1.09,4.3L994,296c-2.9,95.42-7.13,169.94-10.31,181.79l-.92,3.43h-4.61l1-6.22c1.84-11.52,5.34-56.85,6.11-79.15l.76-22.1-2.2,19.82c-1.21,10.9-3.92,34.56-6,52.59S974,480.45,974,482.34v3.43h19.13l22.07-4Zm51.8.33a4,4,0,0,0-1.53-3.14L1064,478l0-3.34-.05-3.34-1.43,2.45L1061,476.2l1.87,4c2,4.38,4.15,5.31,4.15,1.84ZM981.63,360a.76.76,0,1,0-1.52,0,.76.76,0,0,0,1.52,0Zm489.49,149.18c-12.32-4.31-30.59-17.41-47.51-34.08-5.54-5.45-13-12.55-16.55-15.78l-6.48-5.87-2.87-6.33-2.87-6.32,0-6.27,0-6.27,4.61-11.27,4.62-11.26,2-1.52,2-1.53,1.06-4.24,1.06-4.25,3.87-1.47a22.4,22.4,0,0,1,6-1.47h2.19v6.06l13.34-.24a201.41,201.41,0,0,1,22.87.93l9.52,1.17v2.52l0,2.52-4.47,2.54L1459,409.3l-1,5.6-1.05,5.61.76,9.47.76,9.48,3,6.76,3,6.77,6,5.77,6,5.77,9.69,3,9.68,3h19.77l7.87-8.11,7.87-8.12,5.72-9.76,5.71-9.76V426l-12.52-14.56-12.53-14.56-19.11-12.55-19.1-12.55-6.48-1.08-6.48-1.07V365l5.33.62,5.34.62,0-.83c0-1.41-10.47-7.7-12.78-7.7h-2.16l-9.8-10.58-9.8-10.59-6-11.76-6-11.76V279.2l6.26-13,6.25-13,6.7-8.7,6.71-8.7,19.82-14.4,19.81-14.4L1514.5,206l18.36-1.09,12,3.27a152,152,0,0,1,20,7.08l8,3.8,5.2,6.44c5.81,7.2,7.68,11.43,10.94,24.73l2.24,9.15.07,22.63.07,22.63-2.11,5-2.11,5.05-3.33,1.06-3.32,1-12.32-1.09c-6.78-.6-14.37-1.68-16.88-2.4l-4.55-1.3-3.57-3.35-3.57-3.35v-4.91l-8-7.79-8-7.79-4.88-2.45-4.88-2.45H1509a59.89,59.89,0,0,0-12.92,2.36l-8.12,2.36-4.93,3.36a39.25,39.25,0,0,0-8,7.43l-3,4.08-.63,7.36-.64,7.35,2.75,5.34,2.76,5.33,5.71,2.8,5.72,2.79v7.16l4.19,3c6.88,4.85,19.75,10.94,41.32,19.54,11.2,4.47,24.65,10.52,29.9,13.45l9.53,5.33,7.56,6.79,7.55,6.8,2.44,5.83,3.39,8.11c.53,1.26,1.95,4,3.16,6.1l2.2,3.81.07,20.58.06,20.58-8.81,17.16-8.8,17.16-6.27,3.08L1569,498l-14.47,3.67c-8,2-23.77,5.09-35.15,6.83l-20.68,3.15-10.41-.07-10.41-.07-6.74-2.36Zm61.26-8.35,14.88-2.93,11.76-4.26,11.75-4.26,5.87-13.62c3.22-7.49,7.32-16.71,9.1-20.48s3.68-8.23,4.21-9.91l1-3.05-1.82-5.34a150.31,150.31,0,0,1-3.85-16.7l-2-11.37-6.94-7c-3.82-3.84-10.31-9.76-14.43-13.14l-7.49-6.16,1.09-1.77,1.1-1.78,4.49,2.32c2.47,1.28,4.48,1.92,4.48,1.42,0-1.34-20.43-10.47-34.3-15.31-6.7-2.34-12.54-4.71-13-5.27a18,18,0,0,0-4.16-2.79l-3.4-1.79.89,2.31.88,2.31-2.27.87-2.28.88-3.76-3.77-3.77-3.76-8.73-2.75-8.72-2.75-9.57-8.77-9.57-8.77,0-4.25c0-2.34-1.09-10.73-2.48-18.65l-2.51-14.4,3.7-6.31,3.7-6.31,6.14-5.55,6.14-5.54,9.15-4.62,9.15-4.62h19.3l8,4,8,4,9.07,8.63,9.07,8.64,0,3.77a13.36,13.36,0,0,0,1.5,6.06l1.47,2.28,0-2.67,0-2.66h6.09v4.1l2.67,2.33,2.67,2.33,6.1,1c3.35.57,7.12,1.34,8.38,1.7l2.29.67-.34-14.85-.35-14.85-3-17.53-3-17.53-7-6.39-7-6.4-8.46-4-8.47-4-10.15-2.16-10.16-2.15-10.69,0-10.7,0-7.6,5.09-7.6,5.1-1.67-.57-1.66-.57-10.55,11.1-10.54,11.1-4.31,7.35a126.87,126.87,0,0,0-8.1,18.29l-3.8,10.95-.86,15.6-.87,15.59,2.54,6.51,2.54,6.51,4.15,4.9,4.16,4.9,17.39,12.82L1492.81,365l12.72,6.33,12.72,6.33,2.56,3.91,2.56,3.91,3.45,1.31,3.45,1.31,6.31,8a92.73,92.73,0,0,1,19.87,46l1.49,10.49-3.16,5.11-3.16,5.1-5.62,4.44a98.9,98.9,0,0,1-13.59,8.44l-8,4h-26.18l-10.93-2.49A126.16,126.16,0,0,1,1470,472l-6.42-2.75-1.6-3-1.61-3-7.67-5.63-7.67-5.63-3.79-6.47-3.79-6.47v-6l1.83-1.83a6.37,6.37,0,0,1,3.71-1.83h1.88l1.15,3.43,1.16,3.43,2.67-13.72c1.46-7.54,2.71-14.58,2.76-15.62l.09-1.91h-30.09l-1.73,13.44c-.94,7.4-1.72,15.49-1.72,18V441l4,8,4,8,6,4.82,6,4.82,3,4.84,3,4.85,4.64,1.92,4.64,1.93-.76,2-.76,2,7.92,4.89a228.36,228.36,0,0,0,20.88,10.73l13,5.85,11.43-.89c6.29-.49,18.14-2.21,26.32-3.83Zm2.65-38.11V461.2l-1.53.94a3.33,3.33,0,0,0-1.52,2.46v1.53l1.52-.94a3.35,3.35,0,0,0,1.53-2.47ZM1409.2,448a86.72,86.72,0,0,0-5.48-8.69l-1.33-1.45v6.6l4.74,5.39c2.6,3,5.06,5.39,5.48,5.39s-1.13-3.26-3.41-7.24Zm-2.1-28.94-1.56-2.7,0,4.58a35.15,35.15,0,0,0,1.1,8.38l1.12,3.81.47-5.69.47-5.69-1.57-2.69Zm12.06-13.37a.76.76,0,1,0-.76.76.76.76,0,0,0,.76-.76ZM1570.09,386c0-.37-.79-1.16-1.76-1.76l-1.76-1.08,1.09,1.76c1.08,1.75,2.43,2.36,2.43,1.08Zm.53-158.67-.89-2.33-6.43-3.77c-3.54-2.08-7.41-3.77-8.59-3.76h-2.15l7.89,4.53c4.34,2.49,8.33,5.23,8.86,6.09,1.46,2.36,2.32,1.85,1.31-.78ZM1119.3,509.06l-1.82-1.27,3.74-21.3c4.59-26.15,8.75-57.8,13-98.56l3.2-31,1.55-48c.86-26.42,1.73-55.7,1.94-65.08l.39-17.06,4.42-8.76,4.42-8.77,4.87-5.16,4.86-5.17,3.52.5,3.52.5-.17,2.44-.18,2.44,9.07-2.82c5-1.55,15.8-4.19,24-5.87l15-3.06,12,0,12,0,13.72,2.93c7.55,1.62,17.84,3.73,22.87,4.71l9.15,1.77,9.91,4.52,9.9,4.51,16,10.7,16,10.69,12.71,16.27c7,8.95,15,20.05,17.9,24.66l5.19,8.39,1.71,9.14,1.72,9.15-1,16.37-1,16.37,1.77,2.83,1.77,2.84-3.43,11.28a152.26,152.26,0,0,1-19.18,41.11l-7,10.57-11.58,12.31-11.58,12.31-18,13.57c-18.74,14.1-22.86,16.66-32.72,20.28-3.25,1.2-16.19,7-28.77,12.84-27,12.59-44.69,19.09-65.55,24.07-8.39,2-21.08,5.42-28.21,7.61l-12.95,4-8.39.72-8.38.72-1.83-1.26Zm10.76-7.29.88-2.28h-6v1.27c0,3.53,3.86,4.3,5.12,1Zm26.38-4.82-1-1-1,1-1,1h4.07l-1-1Zm-4.65-10.33c9.13-2.05,30.63-6.23,47.79-9.29l31.2-5.57,8.14-3.05,8.14-3,11.73-7.83,11.74-7.83,15.35-15.28,15.35-15.28L1312.37,405c6.13-8,15.26-20.58,20.28-28l9.14-13.56,4.47-12.26c2.46-6.74,6.2-19.1,8.32-27.46l3.84-15.21-5.64-23-5.63-23-3.83-5.71-3.83-5.7-9.56-8.4-9.56-8.39h-9.45v-4.67l-2.34-.9-2.34-.9-3.07,2.78-3.07,2.77-4.12-1.7c-2.26-.94-8.27-3.45-13.35-5.59a175.07,175.07,0,0,0-18.3-6.32l-9-2.45-15.45-.87-15.45-.87-15,1.89-15,1.89-13.84,3.5a184.81,184.81,0,0,0-21.69,6.88l-7.84,3.38-.73,4.78c-.41,2.63-1.85,34.28-3.21,70.33l-2.47,65.56-6,57.82c-3.29,31.81-6,58-6,58.31,0,.93,2.71.47,19.23-3.23Zm51.66-54.17a28,28,0,0,0-8.6-1.46l-5.56-.1-.82-2.14-.82-2.14.91-.91a6.32,6.32,0,0,1,3.61-.91h2.69l.92-2.92.93-2.92-1-4.32-1-4.32-2.77-2.29-2.77-2.29,4.46-61c2.45-33.54,4.47-62.43,4.48-64.21l0-3.23,6.48-.9a132.63,132.63,0,0,0,14.86-3.32l8.39-2.42,13-.88,13-.89,9.59,2.47,9.58,2.46,5.41,3.68c6.91,4.69,8.78,7.44,14.33,21.05l4.53,11.13v4.71c0,2.59-1.29,9.79-2.89,16l-2.89,11.29L1285,356.19c-3.51,8-8.53,19.49-11.15,25.61l-4.78,11.13-11.49,10.31c-15.14,13.59-26.79,22.66-33.48,26.05l-5.44,2.76-6.1.87-6.1.87-3-1.34Zm22.38-10.29,2-2.38-6.46,3.3c-3.56,1.81-6.47,3.59-6.47,3.95,0,1.41,9.09-2.62,10.95-4.87Zm-6-5.2A231.72,231.72,0,0,0,1241,404.83l8.58-5.83,7.58-8.5,7.58-8.5,8.5-17.1,8.49-17.1,3.16-10.45,3.17-10.45,0-8.61c0-4.73-.39-10-.85-11.67l-.82-3.07-4.34-2.49-4.33-2.48-1.91-5.27-1.9-5.28-4.84-1.75a33.41,33.41,0,0,0-9.41-1.75,55.51,55.51,0,0,1-12.26-2.28l-7.7-2.29-7.44,1.42a87.93,87.93,0,0,0-11.74,3,27.41,27.41,0,0,1-8,1.64h-3.75l-1.3,3.43c-.71,1.89-1.76,8.92-2.32,15.63l-1,12.19,1.48,23.87,1.49,23.88,2.4,4.63,2.39,4.64,0,6.55,0,6.56,2.73,13.33,2.73,13.33-1.54,1.53-1.53,1.54h-6.86l-1.55-2.67-1.56-2.67,0,5.72,0,5.71h1.56c.86,0,7.2-2.83,14.1-6.3Zm-15.66-14.28a.76.76,0,1,0-1.52,0,.76.76,0,1,0,1.52,0Zm101.56,26.45c10.86-8.54,33.68-32.25,37.53-39l2.66-4.64-2.66.2-2.65.21.16-3.74.15-3.75-2.08,3c-12.05,17.29-26.43,35.66-35.7,45.59-12.23,13.1-11.79,13.46,2.59,2.14Zm47.68-55.9c1.56-3.08,4.61-10.57,6.79-16.63l4-11,1.79-20.73,1.79-20.72-1.92-8.66c-1-4.76-2.57-9.68-3.38-10.94l-1.47-2.28,1.09,3.05c.6,1.67,1.42,9,1.82,16.19l.73,13.14-4.76,19c-2.62,10.46-6.47,24-8.56,30.2s-3.81,12.48-3.81,14.06v2.87l1.55-1c.85-.52,2.82-3.48,4.39-6.57Zm-184.92-159,2.9-3.27-3.34,1.75a13.53,13.53,0,0,0-4.28,3.27l-.94,1.52h1.38c.76,0,2.68-1.48,4.28-3.27Zm20.28-3,2-4.54-.82-.82-.82-.82-4.64,5.1c-2.55,2.8-4.65,5.52-4.68,6l0,.93,3.49-.66,3.49-.67,2-4.55Zm102.3,1.08c0-1-16.12-5.44-19.93-5.44h-3.45l1,1c2,2,22.41,6.1,22.41,4.47Zm-29-2.4a10.94,10.94,0,0,0-4.86-1.5l-2.58,0-.94,1.52-1,1.53,5.81,0,5.81,0-2.29-1.48Zm-37.43-9.33,1.45-1.34H1212l-.81,1.31-.81,1.32,1,1,1,1,5.44-1c3-.53,6.1-1.57,6.89-2.31ZM609.66,279.18v-86l-.17-25.09-1.42,3.12,2.55,2.55c.13-1,2.09-.37,2-1.42l-3.4-4.25-7.09-1.14-2.83-1.41-.85-2.55-2.27-.29-1.42-2.26,3.69-.86,15.3,13.61-25.75.07H13.48L-11.44,173l23.38-4.25-.14-1-.14,2.26-1-.42-3.12.85-1.42-.14-5,.85-3.54.28-5.39,1.28v345h0l.44,8.88-2.27-.85,5.67,1.7-13-2.27c7.86.27,25.52,0,31.18,0l-24.38,0L298.22,525c96.74-.82,195.22-1.5,290.83-2.61h3.46l17,0,.57.28-7.94,7.66,2-2.27,3.69.85.24-12.71" transform="translate(506 -119.89)"/><path class="cls-2" d="M294.11,507.94l-1.71-4.5v-9.22c0-5.07-.78-16.58-1.72-25.59L289,452.26l1.95-3.64,1.95-3.65L291,431.1l-1.9-13.87,1.74-2.09,1.74-2.1-1.68-4.8-1.67-4.79h-1.28c-.71,0-9.72,2.06-20,4.58l-18.76,4.58-16.06,1.78L217,416.18l-8.33-1.88c-4.59-1-9.79-2-11.55-2.18l-3.21-.29-4-4.79-4-4.8v-6.05l4.47-1.85,4.47-1.85,1-10.15c1.77-17.69,9.51-61,16.8-94.08,6.15-27.87,11.17-56.7,11.32-65.09l.05-2.66h-7.62v-5.42l3.43-3,3.43-2.95,9.91.37,9.9.37,16.52-2.09,16.52-2.09,1.25,3.3,1.26,3.29-6.69,43.26c-6.15,39.78-13.4,79.53-15.53,85.07l-.87,2.28,6.7-1.08a147.68,147.68,0,0,0,18.93-5.3l12.22-4.23L296,311.1l2.71-21.23-.54-14.48c-.3-8-.27-15.69.07-17.15l.61-2.67h4.92l3.33,3.13,3.33,3.13,14.3,1.52c7.86.84,17.38,1.47,21.16,1.41l6.86-.11,2.56-3.37c1.41-1.86,2.81-3,3.11-2.64,10.2,13.78,10.16,13.7,6,13.7H361.6l-.93,11.81c-.52,6.5-1.39,18.68-1.94,27.06l-1,15.25,9.6,1.82,9.6,1.82,3.93,3.93,3.93,3.93,1.37,29.64,1.38,29.64-2.64,6.91-2.65,6.92-1.78-.07c-1,0-4.75-.64-8.38-1.34l-6.61-1.28.67,16.21c.37,8.91,1.5,22.72,2.51,30.69l1.84,14.48,1.68,3.41,1.68,3.42L371,481.94c-1.58,2.94-3.41,5.35-4.06,5.35h-1.17v9.25l-2.31.88-2.31.89-2.31-1.93-2.32-1.92-14.05,1-14.05,1-12.13,2.93-12.12,2.94L300,507.36l-4.15,5.09-1.72-4.51ZM352,487.3v-1.52h0v-1.53l-4.19,0-4.19,0-2.29,1.48-2.29,1.48m-12.19-7.78c10.06-2.45,19.84-4.8,21.72-5.21l3.43-.75V457.18l2.41-5.77,2.41-5.76-3.2-24.25-3.19-24.26.87-1.42.88-1.42h3.87c2.13,0,7.63,1.09,12.22,2.43l8.35,2.42,1-1,1-1,.56-14.79.56-14.79-1.53-12-1.53-12-2-1.29-2-1.28-9.14-.07-9.15-.07-2.42-3.39-2.42-3.38,1.13-17.53c.62-9.64,1.64-23.63,2.26-31.08L354,271.92l-9,.77-9,.77-10.68-1.36c-5.87-.74-12.21-1.69-14.1-2.11l-3.43-.76v36.83l-1.67,11-1.68,11-3,7-3,7-3.33,1.71c-4.49,2.32-30.52,8.86-39.6,10l-7.29.89-1-2.52-1-2.52,2.48-12.32c3-15.06,6.65-41.64,7.91-58.06.52-6.71,2.62-23.06,4.68-36.34s3.75-24.8,3.75-25.59v-1.44l-2.95,1.57L259.22,219l-9.63,0L240,219l-1.72,1.12-1.72,1.12-1.05,9.91c-2.71,25.6-10.48,68.42-22.15,122-3.2,14.67-6.27,29.9-6.82,33.85l-1,7.16,25.61.46,25.62.45,2.62-2.1,2.62-2.09,10-.19,10-.19,1.23-2,1.23-2,3.67.87,3.67.87,4.57-1.3,4.57-1.31,3.43,1.53,3.43,1.53v8.66h-2.63l-.95,6.92-1,6.93,1.51,18.52,1.52,18.53-1.54,1.53-1.53,1.53v34.78L305.9,485c1.46-.6,10.9-3.09,21-5.54Z" transform="translate(506 -119.89)"/><polygon class="cls-1" points="1113.08 46.95 1113.08 53.29 1121.09 53.29 1121.09 46.95 1113.08 46.95 1113.08 46.95"/><polygon class="cls-1" points="1115.92 50.12 1115.92 56.46 1123.92 56.46 1123.92 50.12 1115.92 50.12 1115.92 50.12"/><polygon class="cls-1" points="516.81 46.77 516.81 53.12 522.08 53.12 522.08 46.77 516.81 46.77 516.81 46.77"/><path class="cls-1" d="M646.07,685.47c-21.71,0-17.72-12.56-17.72-25.05s17.6-22.6,39.31-22.6,38.07-15.27,38.07-2.79c0,44.1-38,50.44-59.66,50.44Z" transform="translate(506 -119.89)"/><path class="cls-1" d="M-49.15,685.4c21.79,0,17.79-12.57,17.79-25S-49,637.74-70.82,637.74s-37.5-15.26-37.5-2.78c0,44.09,37.37,50.44,59.17,50.44Z" transform="translate(506 -119.89)"/></svg>